<?xml version="1.0" standalone="no"?>
<!DOCTYPE svg PUBLIC "-//W3C//DTD SVG 20010904//EN"
 "http://www.w3.org/TR/2001/REC-SVG-20010904/DTD/svg10.dtd">
<svg version="1.0" xmlns="http://www.w3.org/2000/svg"
 width="500.000000pt" height="150.000000pt" viewBox="0 0 500.000000 150.000000"
 preserveAspectRatio="xMidYMid meet">
<metadata>
Created by potrace 1.16, written by Peter Selinger 2001-2019
</metadata>
<g transform="translate(0.000000,150.000000) scale(0.100000,-0.100000)"
fill="#fff" stroke="none">
<path d="M0 750 l0 -750 2500 0 2500 0 0 750 0 750 -2500 0 -2500 0 0 -750z
m2166 670 c59 -38 111 -70 117 -70 6 0 18 6 26 13 27 23 181 117 191 117 5 0
79 -46 164 -102 85 -57 315 -208 511 -337 196 -129 359 -239 362 -244 3 -5 0
-14 -6 -20 -16 -16 -14 -18 -559 341 l-473 312 -86 -56 c-47 -30 -82 -58 -79
-62 4 -3 95 -63 204 -133 481 -311 602 -393 599 -403 -7 -21 -43 -16 -87 12
-25 16 -187 121 -360 234 -173 112 -363 235 -422 273 -59 39 -135 87 -168 108
l-60 39 -522 -338 c-288 -186 -534 -340 -546 -342 -20 -4 -23 -1 -20 17 2 15
54 54 178 134 l175 113 3 157 c2 136 5 158 20 166 9 4 58 9 108 10 116 3 124
-4 124 -100 l0 -69 103 67 c56 36 147 95 202 130 55 36 111 73 125 83 14 11
35 19 48 19 12 1 70 -30 128 -69z m1608 26 c-4 -25 -4 -53 0 -62 6 -16 8 -16
25 0 16 15 18 15 18 -1 0 -18 -21 -46 -29 -38 -2 2 -5 -25 -6 -61 -3 -48 0
-64 10 -64 10 0 10 -2 0 -8 -8 -6 -10 -19 -6 -41 4 -18 10 -28 13 -23 3 5 20
11 36 15 17 3 39 8 50 11 12 4 11 1 -5 -7 -102 -53 -105 -57 -94 -139 l6 -45
46 9 c48 9 65 18 45 25 -7 3 -13 11 -13 19 0 12 11 14 53 11 43 -3 52 -6 52
-23 0 -10 4 -22 9 -25 13 -10 -13 -49 -32 -49 -10 0 -35 -9 -57 -20 -48 -25
-57 -25 -27 -1 23 17 23 19 7 35 -11 11 -29 16 -49 14 -29 -3 -31 -5 -34 -51
l-3 -48 28 18 c28 17 28 17 13 -2 -8 -11 -19 -23 -24 -26 -12 -9 3 -31 15 -23
11 6 39 -13 39 -27 0 -4 -12 -9 -27 -11 -25 -3 -28 -7 -31 -46 l-3 -43 38 6
c21 3 47 8 58 11 14 4 16 3 7 -4 -8 -5 -11 -18 -7 -33 5 -21 0 -27 -38 -44
-26 -12 -43 -16 -40 -9 2 7 0 15 -5 18 -10 6 -14 -152 -5 -167 3 -5 5 -63 5
-130 -1 -86 2 -116 9 -102 8 18 9 17 4 -5 -2 -14 -5 -51 -5 -82 0 -51 -2 -58
-20 -58 -12 0 -21 7 -22 18 0 9 -3 31 -4 47 -2 17 -4 122 -5 235 -1 120 -6
210 -11 218 -7 8 -7 12 1 12 7 0 11 19 11 49 0 58 -19 86 -91 132 -53 35 -61
62 -19 67 14 1 42 -6 63 -17 37 -19 37 -19 37 1 0 12 -8 27 -17 35 -17 14 -17
14 0 9 15 -5 17 2 17 64 0 55 -4 71 -17 79 -17 10 -17 10 0 11 9 0 17 7 17 16
0 15 -2 15 -25 0 -32 -21 -58 -20 -79 3 -16 18 -16 19 14 23 25 4 33 1 39 -15
7 -20 8 -19 14 3 3 13 2 29 -4 36 -7 8 -7 14 1 19 15 9 30 -3 24 -19 -3 -8 -1
-17 5 -21 12 -7 15 24 3 41 -4 6 -16 16 -27 22 -18 11 -17 12 8 6 l27 -6 0 59
c0 57 -1 59 -40 83 -42 26 -51 40 -25 40 8 0 15 -6 15 -13 0 -8 11 -19 25 -25
25 -11 25 -11 25 33 0 24 -4 47 -10 50 -5 3 -10 12 -10 18 0 7 4 6 11 -3 8
-11 9 -6 5 23 -3 28 -1 37 9 37 11 0 13 -10 9 -44z m-3423 -786 c28 -15 45
-33 56 -57 38 -92 -33 -179 -159 -197 l-48 -7 0 -114 c0 -90 3 -117 16 -129
14 -15 10 -16 -48 -16 -48 1 -59 3 -45 11 15 9 17 32 17 255 0 162 -4 252 -11
266 -11 21 -11 21 85 15 68 -5 108 -13 137 -27z m477 -7 c4 -38 -1 -40 -28
-13 -18 18 -31 20 -113 18 l-92 -3 0 -100 0 -100 83 -3 c67 -2 83 0 88 13 8
21 23 19 19 -2 -2 -10 -4 -31 -4 -46 -1 -26 -2 -27 -17 -12 -13 12 -33 15 -93
13 l-76 -3 0 -120 0 -120 100 -3 100 -3 28 33 27 32 0 -47 0 -47 -172 0 c-165
0 -171 1 -155 18 25 27 25 476 1 510 l-15 23 158 -3 158 -3 3 -32z m349 11
c100 -49 89 -187 -19 -233 l-38 -16 84 -125 c46 -69 94 -131 107 -137 23 -11
22 -12 -12 -12 -52 -1 -79 24 -170 160 -44 66 -86 119 -94 119 -12 0 -15 -22
-15 -128 0 -86 4 -132 12 -140 9 -9 -1 -12 -46 -12 -52 0 -56 1 -42 16 14 13
16 51 16 256 0 216 -2 244 -17 261 -18 20 -17 20 89 15 75 -4 118 -11 145 -24z
m502 12 c6 -4 11 -26 11 -49 l-1 -42 -15 27 c-20 38 -43 48 -112 48 -55 0 -63
-3 -86 -31 -34 -40 -35 -97 -3 -127 12 -11 60 -37 106 -56 126 -53 157 -91
148 -180 -10 -103 -117 -153 -256 -120 l-71 17 0 45 0 45 23 -34 c45 -67 158
-76 217 -18 25 25 30 39 30 76 0 58 -25 82 -135 129 -51 21 -92 47 -114 70
-30 33 -33 40 -29 85 6 55 32 92 83 116 30 14 181 13 204 -1z m370 -14 c49
-24 74 -62 74 -112 0 -73 -67 -131 -164 -144 l-49 -7 0 -114 c0 -90 3 -117 16
-129 14 -15 10 -16 -46 -16 -56 0 -60 1 -46 16 14 13 16 51 16 259 0 152 -4
246 -10 250 -5 3 -10 11 -10 17 0 17 177 1 219 -20z m488 -9 c5 -38 0 -40 -27
-13 -18 18 -31 20 -113 18 l-92 -3 -3 -102 -3 -103 86 0 c67 0 87 3 91 15 11
29 21 15 19 -27 -3 -54 -2 -52 -21 -33 -13 12 -33 15 -93 13 l-76 -3 -1 -122
-1 -123 103 0 103 0 25 32 26 33 0 -47 0 -48 -172 0 c-166 0 -171 1 -154 19
15 16 16 44 14 257 -2 132 -7 247 -12 257 -8 16 1 17 145 15 l153 -3 3 -32z
m484 25 c38 -11 39 -12 38 -57 0 -36 -2 -41 -9 -25 -17 43 -58 64 -124 64 -77
0 -131 -24 -177 -79 -127 -148 -35 -386 160 -417 57 -9 123 17 150 59 l21 32
0 -47 c0 -46 -1 -47 -37 -57 -173 -47 -311 2 -378 134 -39 76 -41 173 -6 248
28 57 97 120 154 141 51 18 156 20 208 4z m497 -38 l3 -45 -23 27 c-25 29 -31
31 -95 29 l-43 -1 0 -245 c0 -222 2 -245 18 -254 13 -8 2 -10 -46 -11 -58 0
-62 1 -48 16 14 14 16 48 14 257 l-3 241 -55 -2 c-40 -2 -60 -8 -72 -22 -9
-11 -18 -20 -21 -20 -4 0 -2 67 2 77 1 1 83 1 184 0 l182 -2 3 -45z m608 33
c-8 -20 134 -417 145 -405 18 21 140 378 135 398 -5 20 -2 22 37 22 36 1 40
-1 25 -12 -10 -7 -56 -118 -103 -247 -112 -307 -107 -294 -116 -277 -4 8 -49
124 -99 258 -50 135 -97 250 -105 256 -25 19 -17 24 36 24 44 0 50 -2 45 -17z
m752 -26 l3 -37 -25 25 c-23 23 -32 25 -116 25 l-90 0 0 -105 0 -105 77 0 c57
0 81 4 95 17 17 15 18 14 18 -32 0 -46 -1 -47 -18 -32 -14 13 -38 17 -95 17
l-77 0 0 -125 0 -125 94 0 c112 0 124 4 142 44 l13 31 1 -52 0 -53 -171 0
c-155 0 -169 1 -155 16 14 13 16 51 16 256 0 212 -2 244 -17 260 -16 18 -12
18 143 16 l159 -3 3 -38z" />
<path d="M1360 1189 c0 -138 -6 -134 90 -69 l60 41 0 74 0 75 -75 0 -75 0 0
-121z"/>
<path d="M200 546 c0 -129 -2 -126 71 -106 52 14 89 55 89 96 0 69 -38 107
-118 120 l-42 7 0 -117z"/>
<path d="M1020 555 l0 -105 45 0 c80 0 125 40 125 110 0 56 -64 99 -147 100
-22 0 -23 -3 -23 -105z"/>
<path d="M1910 545 l0 -117 43 7 c80 13 124 60 114 121 -10 59 -42 87 -114 99
l-43 7 0 -117z"/>
</g>
</svg>
