<?xml version="1.0" standalone="no"?>
<!DOCTYPE svg PUBLIC "-//W3C//DTD SVG 20010904//EN"
 "http://www.w3.org/TR/2001/REC-SVG-20010904/DTD/svg10.dtd">
<svg version="1.0" xmlns="http://www.w3.org/2000/svg"
 width="500.000000pt" height="500.000000pt" viewBox="0 0 500.000000 500.000000"
 preserveAspectRatio="xMidYMid meet">

<g transform="translate(0.000000,500.000000) scale(0.100000,-0.100000)"
fill="#000000" stroke="none">
<path d="M2183 3354 c-59 -97 -671 -1102 -680 -1116 -2 -5 -1 -8 4 -8 4 0 15
12 24 28 16 27 84 140 311 512 69 113 182 300 253 415 70 116 132 215 139 222
8 9 46 -64 158 -305 81 -174 204 -438 273 -586 69 -148 125 -271 125 -273 0
-2 -129 -3 -286 -3 l-287 0 5 85 c2 47 1 85 -4 85 -4 0 -8 -40 -8 -90 l0 -90
645 0 645 0 -14 23 c-8 12 -91 159 -186 327 -95 168 -179 310 -187 317 -11 9
-96 12 -316 12 l-300 -1 -116 249 c-64 136 -121 259 -127 272 -10 23 -14 18
-71 -75z m1006 -604 c42 -74 125 -219 183 -322 l107 -188 -337 0 -337 0 -143
310 c-78 170 -145 317 -148 325 -6 14 29 15 296 13 l303 -3 76 -135z"/>
<path d="M2220 2882 c0 -23 -27 -42 -48 -35 -8 3 -10 -1 -6 -12 5 -12 17 -15
47 -13 37 3 41 6 42 30 1 15 -2 25 -7 22 -4 -3 -6 -9 -3 -14 3 -5 2 -11 -3
-14 -4 -2 -9 7 -10 21 -3 33 -12 44 -12 15z"/>
<path d="M2261 2796 c-1 -13 22 -76 29 -76 3 0 5 13 5 29 0 17 -4 27 -12 24
-6 -2 -13 4 -16 14 -3 10 -5 14 -6 9z"/>
<path d="M2306 2761 c-4 -7 -5 -15 -2 -18 9 -9 19 4 14 18 -4 11 -6 11 -12 0z"/>
<path d="M2270 2695 c-16 -20 8 -31 27 -13 13 14 13 16 0 21 -9 3 -21 0 -27
-8z"/>
<path d="M2212 2675 c0 -16 2 -22 5 -12 2 9 2 23 0 30 -3 6 -5 -1 -5 -18z"/>
<path d="M2137 2633 c3 -7 9 -10 14 -7 14 8 11 21 -5 21 -8 0 -12 -6 -9 -14z"/>
<path d="M2170 2598 c0 -23 3 -29 9 -19 8 12 4 51 -5 51 -2 0 -4 -15 -4 -32z"/>
<path d="M2120 2593 c0 -18 2 -33 4 -33 9 0 13 39 5 51 -6 10 -9 4 -9 -18z"/>
<path d="M2222 2590 c0 -14 2 -19 5 -12 2 6 2 18 0 25 -3 6 -5 1 -5 -13z"/>
<path d="M2250 2580 c0 -5 7 -7 15 -4 8 4 15 8 15 10 0 2 -7 4 -15 4 -8 0 -15
-4 -15 -10z"/>
<path d="M2156 2548 c5 -8 1 -9 -12 -5 -15 6 -14 3 5 -13 24 -21 41 -19 41 6
0 8 -4 12 -10 9 -5 -3 -10 -1 -10 4 0 6 -5 11 -11 11 -5 0 -7 -5 -3 -12z"/>
<path d="M2233 2495 c0 -33 2 -45 4 -27 2 18 2 45 0 60 -2 15 -4 0 -4 -33z"/>
<path d="M2187 2479 c4 -13 8 -18 11 -10 2 7 -1 18 -6 23 -8 8 -9 4 -5 -13z"/>
<path d="M2195 2441 c-3 -5 -1 -12 5 -16 5 -3 10 1 10 9 0 18 -6 21 -15 7z"/>
<path d="M1735 1991 c-34 -14 -46 -37 -43 -78 3 -37 6 -39 81 -75 74 -36 77
-39 77 -72 0 -81 -134 -90 -154 -10 -4 13 -11 24 -17 24 -12 0 -3 -37 14 -58
54 -68 177 -38 177 43 0 39 -26 65 -88 86 -25 8 -54 27 -65 40 -15 22 -16 29
-6 52 23 50 102 45 115 -8 7 -27 24 -35 24 -11 0 23 -42 65 -70 70 -14 3 -34
1 -45 -3z"/>
<path d="M2773 1985 c-78 -34 -97 -186 -32 -260 38 -43 83 -53 132 -30 35 17
73 74 64 98 -2 7 -11 -4 -20 -24 -18 -45 -51 -69 -93 -69 -67 0 -110 69 -102
162 12 118 119 158 168 63 20 -40 19 -39 26 -33 12 13 -26 78 -55 92 -36 19
-47 19 -88 1z"/>
<path d="M640 1841 c0 -94 4 -151 10 -151 6 0 10 28 10 65 l0 65 59 0 c71 0
99 19 107 71 5 28 1 41 -19 64 -22 26 -32 30 -96 33 l-71 4 0 -151z m150 109
c25 -25 26 -61 2 -90 -14 -18 -32 -24 -75 -28 l-57 -4 0 71 0 71 55 0 c42 0
60 -5 75 -20z"/>
<path d="M990 1840 l0 -150 85 0 c50 0 85 4 85 10 0 6 -32 10 -75 10 l-75 0 0
65 0 64 68 4 67 3 -67 2 -68 2 0 60 0 60 70 0 c40 0 70 4 70 10 0 6 -33 10
-80 10 l-80 0 0 -150z"/>
<path d="M1320 1841 c0 -94 4 -151 10 -151 6 0 10 28 10 65 l0 65 45 0 c51 0
69 -18 80 -82 8 -43 25 -61 49 -52 23 9 20 27 -3 19 -17 -5 -21 0 -27 32 -4
21 -13 50 -21 66 -7 15 -10 27 -5 27 4 0 18 9 30 20 28 26 29 79 3 111 -16 20
-30 24 -95 27 l-76 4 0 -151z m159 102 c42 -52 0 -103 -85 -103 l-54 0 0 65 0
65 59 0 c53 0 62 -3 80 -27z"/>
<path d="M2042 1838 c1 -107 3 -133 7 -88 l6 65 63 5 c73 6 102 30 102 84 -1
58 -40 86 -124 86 l-56 0 2 -152z m136 116 c15 -10 22 -25 22 -48 0 -48 -29
-70 -93 -71 l-52 0 -3 68 -3 67 53 0 c32 0 62 -6 76 -16z"/>
<path d="M2380 1840 l0 -150 85 0 c50 0 85 4 85 10 0 6 -32 10 -75 10 l-75 0
0 65 0 64 68 4 67 3 -67 2 -68 2 0 60 0 60 70 0 c40 0 70 4 70 10 0 6 -33 10
-80 10 l-80 0 0 -150z"/>
<path d="M3090 1980 c0 -5 18 -10 40 -10 l40 0 0 -140 c0 -87 4 -140 10 -140
6 0 10 53 10 140 l0 140 39 0 c22 0 43 5 46 10 4 6 -28 10 -89 10 -57 0 -96
-4 -96 -10z"/>
<path d="M3430 1840 c0 -93 4 -150 10 -150 6 0 10 57 10 150 0 93 -4 150 -10
150 -6 0 -10 -57 -10 -150z"/>
<path d="M3614 1973 c54 -169 95 -278 105 -278 8 0 33 60 61 148 26 81 44 147
40 147 -5 0 -27 -57 -50 -127 -24 -71 -46 -131 -49 -136 -4 -4 -27 53 -50 128
-23 74 -47 135 -52 135 -6 0 -8 -8 -5 -17z"/>
<path d="M3990 1840 l0 -150 80 0 c47 0 80 4 80 10 0 6 -32 10 -75 10 l-75 0
0 65 0 65 68 2 67 1 -65 6 -65 6 -3 58 -3 57 76 0 c43 0 75 4 75 10 0 6 -33
10 -80 10 l-80 0 0 -150z"/>
</g>
</svg>
