<svg aria-hidden="true" version="1.1" xmlns="http://www.w3.org/2000/svg" xmlns:xlink="http://www.w3.org/1999/xlink">
<defs>


<symbol id="icon-facebook" viewBox="0 0 32 32">
<path  d="M21.329 5.313h2.921v-5.088c-0.504-0.069-2.237-0.225-4.256-0.225-4.212 0-7.097 2.649-7.097 7.519v4.481h-4.648v5.688h4.648v14.312h5.699v-14.311h4.46l0.708-5.688h-5.169v-3.919c0.001-1.644 0.444-2.769 2.735-2.769z"></path>
</symbol>
<symbol id="icon-instagram" viewBox="0 0 32 32">
<path  d="M31.969 9.408c-0.075-1.7-0.35-2.869-0.744-3.882-0.406-1.075-1.031-2.038-1.85-2.838-0.8-0.813-1.769-1.444-2.832-1.844-1.019-0.394-2.182-0.669-3.882-0.744-1.713-0.081-2.257-0.1-6.601-0.1s-4.888 0.019-6.595 0.094c-1.7 0.075-2.869 0.35-3.882 0.744-1.075 0.406-2.038 1.031-2.838 1.85-0.813 0.8-1.444 1.769-1.844 2.832-0.394 1.019-0.669 2.182-0.744 3.882-0.081 1.713-0.1 2.257-0.1 6.601s0.019 4.888 0.094 6.595c0.075 1.7 0.35 2.869 0.744 3.882 0.406 1.075 1.038 2.038 1.85 2.838 0.8 0.813 1.769 1.444 2.832 1.844 1.019 0.394 2.182 0.669 3.882 0.744 1.706 0.075 2.25 0.094 6.595 0.094s4.888-0.018 6.595-0.094c1.7-0.075 2.869-0.35 3.882-0.744 2.151-0.831 3.851-2.532 4.682-4.682 0.394-1.019 0.669-2.182 0.744-3.882 0.075-1.707 0.094-2.251 0.094-6.595s-0.006-4.888-0.081-6.595zM29.087 22.473c-0.069 1.563-0.331 2.407-0.55 2.969-0.538 1.394-1.644 2.501-3.038 3.038-0.563 0.219-1.413 0.481-2.969 0.55-1.688 0.075-2.194 0.094-6.464 0.094s-4.782-0.018-6.464-0.094c-1.563-0.069-2.407-0.331-2.969-0.55-0.694-0.256-1.325-0.663-1.838-1.194-0.531-0.519-0.938-1.144-1.194-1.838-0.219-0.563-0.481-1.413-0.55-2.969-0.075-1.688-0.094-2.194-0.094-6.464s0.019-4.782 0.094-6.464c0.069-1.563 0.331-2.407 0.55-2.969 0.256-0.694 0.663-1.325 1.2-1.838 0.519-0.531 1.144-0.938 1.838-1.194 0.563-0.219 1.413-0.481 2.969-0.55 1.688-0.075 2.194-0.094 6.464-0.094 4.276 0 4.782 0.019 6.464 0.094 1.563 0.069 2.407 0.331 2.969 0.55 0.694 0.256 1.325 0.662 1.838 1.194 0.531 0.519 0.938 1.144 1.194 1.838 0.219 0.563 0.481 1.413 0.55 2.969 0.075 1.688 0.094 2.194 0.094 6.464s-0.019 4.77-0.094 6.457z"></path>
<path  d="M16.059 7.782c-4.538 0-8.22 3.682-8.22 8.22s3.682 8.22 8.22 8.22c4.538 0 8.22-3.682 8.22-8.22s-3.682-8.22-8.22-8.22zM16.059 21.335c-2.944 0-5.332-2.388-5.332-5.332s2.388-5.332 5.332-5.332c2.944 0 5.332 2.388 5.332 5.332s-2.388 5.332-5.332 5.332z"></path>
<path  d="M26.524 7.457c0 1.060-0.859 1.919-1.919 1.919s-1.919-0.859-1.919-1.919c0-1.060 0.859-1.919 1.919-1.919s1.919 0.859 1.919 1.919z"></path>
</symbol>

<symbol id="icon-close-black" viewBox="0 0 32 32">
<path d="M32 3.223l-3.223-3.223-12.777 12.777-12.777-12.777-3.223 3.223 12.777 12.777-12.777 12.777 3.223 3.223 12.777-12.777 12.777 12.777 3.223-3.223-12.777-12.777 12.777-12.777z"></path>
</symbol>
<symbol id="icon-email-black-svg" viewBox="0 0 24 32">
<path d="M20 8h-16c-1.1 0-1.99 0.9-1.99 2l-0.010 12c0 1.1 0.9 2 2 2h16c1.1 0 2-0.9 2-2v-12c0-1.1-0.9-2-2-2zM19.6 12.25l-7.070 4.42c-0.32 0.2-0.74 0.2-1.060 0l-7.070-4.42c-0.25-0.16-0.4-0.43-0.4-0.72 0-0.67 0.73-1.070 1.3-0.72l6.7 4.19 6.7-4.19c0.57-0.35 1.3 0.050 1.3 0.72 0 0.29-0.15 0.56-0.4 0.72z"></path>
</symbol><symbol id="icon-person-black-svg" viewBox="0 0 32 32">
<path d="M16 16c2.947 0 5.333-2.387 5.333-5.333s-2.387-5.333-5.333-5.333c-2.947 0-5.333 2.387-5.333 5.333s2.387 5.333 5.333 5.333zM16 18.667c-3.56 0-10.667 1.787-10.667 5.333v1.333c0 0.733 0.6 1.333 1.333 1.333h18.667c0.733 0 1.333-0.6 1.333-1.333v-1.333c0-3.547-7.107-5.333-10.667-5.333z"></path>
</symbol>
<symbol id="icon-phone-black-svg" viewBox="0 0 24 32">
<path d="M19.635 18.487l-2.451-0.28c-0.589-0.067-1.167 0.135-1.582 0.55l-1.775 1.775c-2.731-1.389-4.969-3.618-6.359-6.359l1.785-1.785c0.415-0.415 0.618-0.994 0.55-1.582l-0.28-2.432c-0.116-0.975-0.936-1.708-1.92-1.708h-1.669c-1.090 0-1.997 0.907-1.93 1.997 0.511 8.24 7.102 14.821 15.332 15.332 1.090 0.068 1.997-0.839 1.997-1.93v-1.669c0.010-0.975-0.724-1.795-1.698-1.911z"></path>
</symbol>
<symbol id="icon-icon-tlgrm" viewBox="0 0 32 32">
<path  d="M32 2.667l-32 15 10.227 3.156 15.773-12.323-11.998 13.488 0.010 0.003-0.012-0.003v7.345l5.735-5.576 7.265 2.242 5-23.333z"></path>
</symbol>
<symbol id="icon-telegram_icon_131945" viewBox="0 0 32 32">
<path d="M29.402 2.839l-28.351 10.989c-1.141 0.512-1.527 1.537-0.276 2.093l7.273 2.323 17.585-10.924c0.96-0.686 1.943-0.503 1.097 0.251l-15.104 13.746-0.474 5.817c0.439 0.898 1.244 0.902 1.757 0.456l4.179-3.974 7.157 5.387c1.662 0.989 2.567 0.351 2.924-1.462l4.694-22.342c0.487-2.232-0.344-3.215-2.462-2.36z"></path>
</symbol>
<symbol id="icon-viber_icon_160768" viewBox="0 0 32 32">
<path d="M15.284 3.394c-2.295 0.031-7.232 0.408-9.994 2.938-2.050 2.038-2.767 5.043-2.85 8.765-0.072 3.707-0.155 10.669 6.556 12.565v2.885s-0.045 1.156 0.718 1.395c0.942 0.298 1.478-0.595 2.372-1.548l1.669-1.883c4.589 0.381 8.106-0.499 8.511-0.631 0.93-0.298 6.176-0.967 7.034-7.929 0.882-7.189-0.429-11.719-2.789-13.769l-0.012-0.002c-0.715-0.656-3.576-2.742-9.977-2.765 0 0-0.472-0.030-1.237-0.019zM15.364 5.417c0.65-0.004 1.049 0.024 1.049 0.024 5.412 0.012 8 1.645 8.608 2.193 1.991 1.703 3.013 5.788 2.265 11.791-0.715 5.817-4.971 6.187-5.757 6.437-0.334 0.107-3.433 0.87-7.333 0.62 0 0-2.907 3.506-3.813 4.412-0.143 0.155-0.31 0.203-0.417 0.179-0.155-0.036-0.203-0.227-0.191-0.489l0.024-4.791c-5.687-1.573-5.353-7.512-5.294-10.611 0.072-3.099 0.656-5.641 2.384-7.357 2.333-2.11 6.526-2.396 8.475-2.408zM15.793 8.516c-0 0-0.001 0-0.001 0-0.196 0-0.356 0.159-0.356 0.355v0.001c0 0 0 0 0 0 0 0.197 0.16 0.358 0.358 0.358v0c0.038-0.001 0.083-0.001 0.128-0.001 1.819 0 3.469 0.723 4.677 1.898l-0.002-0.002c1.299 1.264 1.932 2.956 1.956 5.173 0 0.198 0.16 0.358 0.358 0.358 0 0 0 0 0 0v0-0.011c0.198 0 0.358-0.16 0.358-0.358v0c0.004-0.097 0.007-0.211 0.007-0.326 0-2.079-0.825-3.966-2.166-5.35l0.002 0.002c-1.418-1.383-3.209-2.098-5.319-2.098zM11.080 9.339c-0.048-0.007-0.104-0.011-0.161-0.011-0.211 0-0.408 0.057-0.578 0.157l0.005-0.003h-0.014c-0.527 0.311-0.978 0.683-1.364 1.115l-0.005 0.005c-0.322 0.381-0.502 0.762-0.55 1.131-0.008 0.057-0.012 0.123-0.012 0.19 0 0.163 0.026 0.319 0.075 0.466l-0.003-0.010 0.024 0.012c0.409 1.19 0.892 2.213 1.472 3.173l-0.041-0.073c0.8 1.438 1.718 2.679 2.773 3.788l-0.007-0.008 0.036 0.048 0.048 0.036 0.072 0.072c1.105 1.050 2.349 1.971 3.697 2.729l0.093 0.048c1.573 0.858 2.529 1.264 3.102 1.43v0.012c0.142 0.044 0.305 0.070 0.474 0.072h0.001c0.509-0.038 0.964-0.245 1.315-0.564l-0.002 0.002c0.436-0.388 0.805-0.84 1.095-1.342l0.014-0.026v-0.012c0.274-0.513 0.179-1.003-0.215-1.336-0.755-0.663-1.593-1.27-2.486-1.794l-0.076-0.041c-0.608-0.334-1.228-0.131-1.478 0.203l-0.536 0.678c-0.274 0.334-0.775 0.286-0.775 0.286l-0.014 0.012c-3.719-0.954-4.708-4.719-4.708-4.719s-0.048-0.513 0.298-0.775l0.668-0.536c0.322-0.262 0.548-0.882 0.203-1.49-0.565-0.969-1.171-1.808-1.851-2.581l0.015 0.018c-0.148-0.183-0.357-0.312-0.595-0.357l-0.006-0.001zM16.412 10.4c-0.197 0.001-0.356 0.161-0.356 0.358s0.16 0.358 0.358 0.358c0 0 0.001 0 0.001 0h-0c1.241 0.022 2.356 0.543 3.158 1.37l0.001 0.001c0.671 0.738 1.081 1.722 1.081 2.802 0 0.092-0.003 0.183-0.009 0.274l0.001-0.012c0.001 0.197 0.161 0.356 0.358 0.356 0 0 0 0 0 0v0l0.012 0.014c0.198 0 0.358-0.16 0.358-0.358v0-0.001c0.036-1.418-0.405-2.611-1.275-3.564s-2.086-1.49-3.636-1.597c-0.008-0.001-0.016-0.001-0.025-0.001s-0.018 0-0.026 0.001l0.001-0zM16.996 12.329c-0.003-0-0.007-0-0.011-0-0.201 0-0.364 0.163-0.364 0.364 0 0.197 0.157 0.358 0.353 0.364h0.001c1.18 0.060 1.752 0.656 1.824 1.883 0.007 0.192 0.164 0.346 0.357 0.346 0 0 0 0 0 0h0.012c0.193-0.006 0.346-0.164 0.346-0.357 0-0.004-0-0.008-0-0.012v0.001q-0-0.006-0.001-0.013c-0.083-1.597-0.954-2.492-2.503-2.576q-0.007-0-0.014 0z"></path>
</symbol>
</defs>
</svg>

